<?xml version="1.0" encoding="utf-8" standalone="no"?>
<!DOCTYPE svg PUBLIC "-//W3C//DTD SVG 1.1//EN"
  "http://www.w3.org/Graphics/SVG/1.1/DTD/svg11.dtd">
<!-- Created with matplotlib (http://matplotlib.org/) -->
<svg height="300pt" version="1.1" viewBox="0 0 918 300" width="918pt" xmlns="http://www.w3.org/2000/svg" xmlns:xlink="http://www.w3.org/1999/xlink">
 <defs>
  <style type="text/css">
*{stroke-linecap:butt;stroke-linejoin:round;}
  </style>
 </defs>
 <g id="figure_1">
  <g id="patch_1">
   <path d="M 0 300.690125 
L 918.582125 300.690125 
L 918.582125 0 
L 0 0 
z
" style="fill:#ffffff;"/>
  </g>
  <g id="axes_1">
   <g id="patch_2">
    <path clip-path="url(#p03a46872b8)" d="M 111.895125 95.372 
L 111.895125 59.084 
L 232.855125 59.084 
L 232.855125 95.372 
z
" style="fill:#008000;opacity:0.3;"/>
   </g>
   <g id="patch_3">
    <path clip-path="url(#p03a46872b8)" d="M 208.663125 119.564 
L 208.663125 83.276 
L 281.239125 83.276 
L 281.239125 119.564 
z
" style="fill:#ffc0cb;opacity:0.6;"/>
   </g>
   <g id="patch_4">
    <path clip-path="url(#p03a46872b8)" d="M 131.248725 216.332 
L 131.248725 172.7864 
L 155.440725 172.7864 
L 155.440725 216.332 
z
" style="fill:#ffa500;opacity:0.6;"/>
   </g>
   <g id="patch_5">
    <path clip-path="url(#p03a46872b8)" d="M 184.471125 192.14 
L 184.471125 148.5944 
L 300.592725 148.5944 
L 300.592725 192.14 
z
" style="fill:#add8e6;opacity:0.6;"/>
   </g>
   <g id="line2d_1">
    <path clip-path="url(#p03a46872b8)" d="M 87.703125 264.716 
L 87.703125 22.796 
" style="fill:none;stroke:#000000;stroke-linecap:square;stroke-width:2;"/>
   </g>
   <g id="line2d_2">
    <path clip-path="url(#p03a46872b8)" d="M 329.623125 264.716 
L 329.623125 22.796 
" style="fill:none;stroke:#000000;stroke-linecap:square;stroke-width:2;"/>
   </g>
   <g id="line2d_3">
    <path clip-path="url(#p03a46872b8)" d="M 87.703125 264.716 
L 329.623125 264.716 
" style="fill:none;stroke:#000000;stroke-linecap:square;stroke-width:2;"/>
   </g>
   <g id="line2d_4">
    <path clip-path="url(#p03a46872b8)" d="M 87.703125 22.796 
L 329.623125 22.796 
" style="fill:none;stroke:#000000;stroke-linecap:square;stroke-width:2;"/>
   </g>
   <g id="line2d_5">
    <path clip-path="url(#p03a46872b8)" d="M 111.895125 95.372 
L 111.895125 59.084 
" style="fill:none;stroke:#ff0000;stroke-linecap:square;stroke-width:1.5;"/>
   </g>
   <g id="line2d_6">
    <path clip-path="url(#p03a46872b8)" d="M 232.855125 95.372 
L 232.855125 59.084 
" style="fill:none;stroke:#ff0000;stroke-linecap:square;stroke-width:1.5;"/>
   </g>
   <g id="line2d_7">
    <path clip-path="url(#p03a46872b8)" d="M 111.895125 95.372 
L 232.855125 95.372 
" style="fill:none;stroke:#ff0000;stroke-linecap:square;stroke-width:1.5;"/>
   </g>
   <g id="line2d_8">
    <path clip-path="url(#p03a46872b8)" d="M 111.895125 59.084 
L 232.855125 59.084 
" style="fill:none;stroke:#ff0000;stroke-linecap:square;stroke-width:1.5;"/>
   </g>
   <g id="line2d_9">
    <path clip-path="url(#p03a46872b8)" d="M 208.663125 119.564 
L 208.663125 83.276 
" style="fill:none;stroke:#ff0000;stroke-linecap:square;stroke-width:1.5;"/>
   </g>
   <g id="line2d_10">
    <path clip-path="url(#p03a46872b8)" d="M 281.239125 119.564 
L 281.239125 83.276 
" style="fill:none;stroke:#ff0000;stroke-linecap:square;stroke-width:1.5;"/>
   </g>
   <g id="line2d_11">
    <path clip-path="url(#p03a46872b8)" d="M 208.663125 119.564 
L 281.239125 119.564 
" style="fill:none;stroke:#ff0000;stroke-linecap:square;stroke-width:1.5;"/>
   </g>
   <g id="line2d_12">
    <path clip-path="url(#p03a46872b8)" d="M 208.663125 83.276 
L 281.239125 83.276 
" style="fill:none;stroke:#ff0000;stroke-linecap:square;stroke-width:1.5;"/>
   </g>
   <g id="line2d_13">
    <path clip-path="url(#p03a46872b8)" d="M 131.248725 216.332 
L 131.248725 172.7864 
" style="fill:none;stroke:#ff0000;stroke-linecap:square;stroke-width:1.5;"/>
   </g>
   <g id="line2d_14">
    <path clip-path="url(#p03a46872b8)" d="M 155.440725 216.332 
L 155.440725 172.7864 
" style="fill:none;stroke:#ff0000;stroke-linecap:square;stroke-width:1.5;"/>
   </g>
   <g id="line2d_15">
    <path clip-path="url(#p03a46872b8)" d="M 131.248725 216.332 
L 155.440725 216.332 
" style="fill:none;stroke:#ff0000;stroke-linecap:square;stroke-width:1.5;"/>
   </g>
   <g id="line2d_16">
    <path clip-path="url(#p03a46872b8)" d="M 131.248725 172.7864 
L 155.440725 172.7864 
" style="fill:none;stroke:#ff0000;stroke-linecap:square;stroke-width:1.5;"/>
   </g>
   <g id="line2d_17">
    <path clip-path="url(#p03a46872b8)" d="M 184.471125 192.14 
L 184.471125 148.5944 
" style="fill:none;stroke:#ff0000;stroke-linecap:square;stroke-width:1.5;"/>
   </g>
   <g id="line2d_18">
    <path clip-path="url(#p03a46872b8)" d="M 300.592725 192.14 
L 300.592725 148.5944 
" style="fill:none;stroke:#ff0000;stroke-linecap:square;stroke-width:1.5;"/>
   </g>
   <g id="line2d_19">
    <path clip-path="url(#p03a46872b8)" d="M 184.471125 192.14 
L 300.592725 192.14 
" style="fill:none;stroke:#ff0000;stroke-linecap:square;stroke-width:1.5;"/>
   </g>
   <g id="line2d_20">
    <path clip-path="url(#p03a46872b8)" d="M 184.471125 148.5944 
L 300.592725 148.5944 
" style="fill:none;stroke:#ff0000;stroke-linecap:square;stroke-width:1.5;"/>
   </g>
   <g id="text_1">
    <!-- Sparti -->
    <defs>
     <path d="M 46.96875 67.71875 
L 47.515625 45.65625 
L 45.515625 45.65625 
Q 44.09375 53.953125 38.546875 59 
Q 33.015625 64.0625 26.5625 64.0625 
Q 21.578125 64.0625 18.671875 61.390625 
Q 15.765625 58.734375 15.765625 55.28125 
Q 15.765625 53.078125 16.796875 51.375 
Q 18.21875 49.078125 21.34375 46.828125 
Q 23.640625 45.21875 31.9375 41.109375 
Q 43.5625 35.40625 47.609375 30.328125 
Q 51.609375 25.25 51.609375 18.703125 
Q 51.609375 10.40625 45.140625 4.421875 
Q 38.671875 -1.5625 28.71875 -1.5625 
Q 25.59375 -1.5625 22.796875 -0.921875 
Q 20.015625 -0.296875 15.828125 1.46875 
Q 13.484375 2.4375 11.96875 2.4375 
Q 10.6875 2.4375 9.265625 1.453125 
Q 7.859375 0.484375 6.984375 -1.515625 
L 5.171875 -1.515625 
L 5.171875 23.484375 
L 6.984375 23.484375 
Q 9.125 12.9375 15.25 7.390625 
Q 21.390625 1.859375 28.46875 1.859375 
Q 33.9375 1.859375 37.1875 4.828125 
Q 40.4375 7.8125 40.4375 11.765625 
Q 40.4375 14.109375 39.1875 16.296875 
Q 37.9375 18.5 35.390625 20.484375 
Q 32.859375 22.46875 26.421875 25.640625 
Q 17.390625 30.078125 13.421875 33.203125 
Q 9.46875 36.328125 7.34375 40.1875 
Q 5.21875 44.046875 5.21875 48.6875 
Q 5.21875 56.59375 11.03125 62.15625 
Q 16.84375 67.71875 25.6875 67.71875 
Q 28.90625 67.71875 31.9375 66.9375 
Q 34.234375 66.359375 37.53125 64.765625 
Q 40.828125 63.1875 42.140625 63.1875 
Q 43.40625 63.1875 44.140625 63.96875 
Q 44.875 64.75 45.515625 67.71875 
z
" id="TimesNewRomanPS-BoldMT-53"/>
     <path d="M 21.046875 4.640625 
L 21.046875 -12.359375 
Q 21.046875 -15.875 21.609375 -17.140625 
Q 22.171875 -18.40625 23.34375 -18.984375 
Q 24.515625 -19.578125 27.9375 -19.578125 
L 27.9375 -21.390625 
L 1.90625 -21.390625 
L 1.90625 -19.578125 
Q 4.9375 -19.484375 6.390625 -17.875 
Q 7.375 -16.75 7.375 -12.0625 
L 7.375 36.140625 
Q 7.375 40.96875 6.25 42.3125 
Q 5.125 43.65625 1.90625 43.84375 
L 1.90625 45.65625 
L 21.046875 45.65625 
L 21.046875 39.65625 
Q 23.4375 43.171875 25.921875 44.734375 
Q 29.5 47.015625 33.6875 47.015625 
Q 38.71875 47.015625 42.84375 43.84375 
Q 46.96875 40.671875 49.109375 35.078125 
Q 51.265625 29.5 51.265625 23.046875 
Q 51.265625 16.109375 49.046875 10.375 
Q 46.828125 4.640625 42.59375 1.625 
Q 38.375 -1.375 33.203125 -1.375 
Q 29.4375 -1.375 26.171875 0.296875 
Q 23.734375 1.5625 21.046875 4.640625 
z
M 21.046875 9.578125 
Q 25.25 3.609375 30.03125 3.609375 
Q 32.671875 3.609375 34.375 6.390625 
Q 36.921875 10.5 36.921875 22.015625 
Q 36.921875 33.84375 34.125 38.1875 
Q 32.28125 41.0625 29.15625 41.0625 
Q 24.21875 41.0625 21.046875 33.9375 
z
" id="TimesNewRomanPS-BoldMT-70"/>
     <path d="M 28.5625 6.734375 
Q 20.21875 -0.640625 13.578125 -0.640625 
Q 9.671875 -0.640625 7.078125 1.921875 
Q 4.5 4.5 4.5 8.34375 
Q 4.5 13.578125 8.984375 17.75 
Q 13.484375 21.921875 28.5625 28.859375 
L 28.5625 33.453125 
Q 28.5625 38.625 28 39.96875 
Q 27.4375 41.3125 25.875 42.3125 
Q 24.3125 43.3125 22.359375 43.3125 
Q 19.1875 43.3125 17.140625 41.890625 
Q 15.875 41.015625 15.875 39.84375 
Q 15.875 38.8125 17.234375 37.3125 
Q 19.09375 35.203125 19.09375 33.25 
Q 19.09375 30.859375 17.3125 29.171875 
Q 15.53125 27.484375 12.640625 27.484375 
Q 9.578125 27.484375 7.5 29.34375 
Q 5.421875 31.203125 5.421875 33.6875 
Q 5.421875 37.203125 8.203125 40.40625 
Q 10.984375 43.609375 15.96875 45.3125 
Q 20.953125 47.015625 26.3125 47.015625 
Q 32.8125 47.015625 36.59375 44.25 
Q 40.375 41.5 41.5 38.28125 
Q 42.1875 36.234375 42.1875 28.859375 
L 42.1875 11.140625 
Q 42.1875 8.015625 42.421875 7.203125 
Q 42.671875 6.390625 43.15625 6 
Q 43.65625 5.609375 44.28125 5.609375 
Q 45.5625 5.609375 46.875 7.421875 
L 48.34375 6.25 
Q 45.90625 2.640625 43.28125 1 
Q 40.671875 -0.640625 37.359375 -0.640625 
Q 33.453125 -0.640625 31.25 1.1875 
Q 29.046875 3.03125 28.5625 6.734375 
z
M 28.5625 10.296875 
L 28.5625 25.59375 
Q 22.65625 22.125 19.78125 18.171875 
Q 17.875 15.53125 17.875 12.84375 
Q 17.875 10.59375 19.484375 8.890625 
Q 20.703125 7.5625 22.90625 7.5625 
Q 25.34375 7.5625 28.5625 10.296875 
z
" id="TimesNewRomanPS-BoldMT-61"/>
     <path d="M 22.3125 45.65625 
L 22.3125 35.296875 
Q 26.859375 42.390625 30.265625 44.703125 
Q 33.6875 47.015625 36.859375 47.015625 
Q 39.59375 47.015625 41.234375 45.328125 
Q 42.875 43.65625 42.875 40.578125 
Q 42.875 37.3125 41.28125 35.5 
Q 39.703125 33.6875 37.453125 33.6875 
Q 34.859375 33.6875 32.953125 35.34375 
Q 31.0625 37.015625 30.71875 37.203125 
Q 30.21875 37.5 29.59375 37.5 
Q 28.171875 37.5 26.90625 36.421875 
Q 24.90625 34.765625 23.875 31.6875 
Q 22.3125 26.953125 22.3125 21.234375 
L 22.3125 10.75 
L 22.359375 8.015625 
Q 22.359375 5.21875 22.703125 4.4375 
Q 23.296875 3.125 24.4375 2.515625 
Q 25.59375 1.90625 28.328125 1.765625 
L 28.328125 0 
L 3.65625 0 
L 3.65625 1.765625 
Q 6.640625 2 7.6875 3.390625 
Q 8.734375 4.78125 8.734375 10.75 
L 8.734375 35.984375 
Q 8.734375 39.890625 8.34375 40.96875 
Q 7.859375 42.328125 6.921875 42.96875 
Q 6 43.609375 3.65625 43.84375 
L 3.65625 45.65625 
z
" id="TimesNewRomanPS-BoldMT-72"/>
     <path d="M 21.484375 62.359375 
L 21.484375 45.65625 
L 32.328125 45.65625 
L 32.328125 40.828125 
L 21.484375 40.828125 
L 21.484375 12.640625 
Q 21.484375 8.6875 21.84375 7.53125 
Q 22.21875 6.390625 23.140625 5.6875 
Q 24.078125 4.984375 24.859375 4.984375 
Q 28.03125 4.984375 30.859375 9.8125 
L 32.328125 8.734375 
Q 28.375 -0.640625 19.484375 -0.640625 
Q 15.140625 -0.640625 12.125 1.78125 
Q 9.125 4.203125 8.296875 7.171875 
Q 7.8125 8.84375 7.8125 16.15625 
L 7.8125 40.828125 
L 1.859375 40.828125 
L 1.859375 42.53125 
Q 8.015625 46.875 12.328125 51.65625 
Q 16.65625 56.453125 19.875 62.359375 
z
" id="TimesNewRomanPS-BoldMT-74"/>
     <path d="M 14.359375 67.78125 
Q 17.53125 67.78125 19.71875 65.546875 
Q 21.921875 63.328125 21.921875 60.203125 
Q 21.921875 57.078125 19.703125 54.875 
Q 17.484375 52.6875 14.359375 52.6875 
Q 11.234375 52.6875 9.03125 54.875 
Q 6.84375 57.078125 6.84375 60.203125 
Q 6.84375 63.328125 9.03125 65.546875 
Q 11.234375 67.78125 14.359375 67.78125 
z
M 21.1875 45.65625 
L 21.1875 9.46875 
Q 21.1875 4.640625 22.3125 3.296875 
Q 23.4375 1.953125 26.703125 1.765625 
L 26.703125 0 
L 2.046875 0 
L 2.046875 1.765625 
Q 5.078125 1.859375 6.546875 3.515625 
Q 7.515625 4.640625 7.515625 9.46875 
L 7.515625 36.140625 
Q 7.515625 40.96875 6.390625 42.3125 
Q 5.28125 43.65625 2.046875 43.84375 
L 2.046875 45.65625 
z
" id="TimesNewRomanPS-BoldMT-69"/>
    </defs>
    <g transform="translate(378.007125 196.9784)scale(2 -2)">
     <use xlink:href="#TimesNewRomanPS-BoldMT-53"/>
     <use x="55.615234" xlink:href="#TimesNewRomanPS-BoldMT-70"/>
     <use x="111.230469" xlink:href="#TimesNewRomanPS-BoldMT-61"/>
     <use x="161.230469" xlink:href="#TimesNewRomanPS-BoldMT-72"/>
     <use x="205.615234" xlink:href="#TimesNewRomanPS-BoldMT-74"/>
     <use x="238.916016" xlink:href="#TimesNewRomanPS-BoldMT-69"/>
    </g>
   </g>
  </g>
 </g>
 <defs>
  <clipPath id="p03a46872b8">
   <rect height="266.112" width="357.12" x="30.103125" y="10.7"/>
  </clipPath>
 </defs>
</svg>
